{"title":"Magasiskola aka The Falcons (1970) - DVDRip x264 [+Extras]","uid":10852375,"size":1894898259,"categoryP":"video","categoryS":"movies","magnet":"?xt=urn:btih:dc213a2de14bf84e8c5720e96b86c86a98f7e874&amp;dn=Magasiskola+aka+The+Falcons+%281970%29+-+DVDRip+x264+%5B%2BExtras%5D&amp;tr=udp%3A%2F%2Ftracker.openbittorrent.com%3A80&amp;tr=udp%3A%2F%2Fopen.demonii.com%3A1337&amp;tr=udp%3A%2F%2Ftracker.coppersurfer.tk%3A6969&amp;tr=udp%3A%2F%2Fexodus.desync.com%3A6969","seeders":1,"leechers":1,"uploader":"rpessoa","files":3,"time":1408818616,"description":"A young man with an interest in ornithology arrives to study the work of falcons and their human trainers. The head falconer is a cold and heartless man who obstinately demands perfection from everyone around him. His work is his life, and he doesn't care if his girlfriend makes love to other men. The young man observes all he can before leaving behind the potentially inhuman situation for brighter horizons.&quot; \n &lt;a href=&quot;\nhttp://www.imdb.com/title/tt0066035/&quot; rel=&quot;nofollow&quot; target=&quot;_NEW&quot;&gt;\nhttp://www.imdb.com/title/tt0066035/&lt;/a&gt;\n\nGeneral\nUnique ID : 232752627558259746179486842486193294305 (0xAF1A86877DA801C6B82CE0A8874A8BE1)\nComplete name : /Magasiskola (Istvan Gaal, 1970).mkv\nFormat : Matroska\nFormat version : Version 4 / Version 2\nFile size : 1.27 GiB\nDuration : 1h 21mn\nOverall bit rate : 2 238 Kbps\nEncoded date : UTC 2013-11-30 21:49:01\nWriting application : mkvmerge v6.4.1 ('Omega Point') built on Sep 16 2013 22:05:10\nWriting library : libebml v1.3.0 + libmatroska v1.4.1\n\nVideo\nID : 1\nFormat : AVC\nFormat/Info : Advanced Video Codec\nFormat profile : &lt;a class=&quot;__cf_email__&quot; href=&quot;/cdn-cgi/l/email-protection&quot; data-cfemail=&quot;622f030b0c222e514c53&quot;&gt;[email&amp;#160;protected]&lt;/a&gt;&lt;script cf-hash='f9e31' type=&quot;text/javascript&quot;&gt;\n/* &lt;![CDATA[ */!function(){try{var t=&quot;currentScript&quot;in document?document.currentScript:function(){for(var t=document.getElementsByTagName(&quot;script&quot;),e=t.length;e--;)if(t[e].getAttribute(&quot;cf-hash&quot;))return t[e]}();if(t&amp;&amp;t.previousSibling){var e,r,n,i,c=t.previousSibling,a=c.getAttribute(&quot;data-cfemail&quot;);if(a){for(e=&quot;&quot;,r=parseInt(a.substr(0,2),16),n=2;a.length-n;n+=2)i=parseInt(a.substr(n,2),16)^r,e+=String.fromCharCode(i);e=document.createTextNode(e),c.parentNode.replaceChild(e,c)}}}catch(u){}}();/* ]]&gt; */&lt;/script&gt;\nFormat settings, CABAC : Yes\nFormat settings, ReFrames : 8 frames\nCodec ID : V_MPEG4/ISO/AVC\nDuration : 1h 21mn\nBit rate : 1 980 Kbps\nWidth : 720 pixels\nHeight : 576 pixels\nDisplay aspect ratio : 16:9\nFrame rate : 25.000 fps\nStandard : PAL\nColor space : YUV\nChroma subsampling : 4:2:0\nBit depth : 8 bits\nScan type : Progressive\nBits/(Pixel*Frame) : 0.191\nStream size : 1.10 GiB (87%)\nWriting library : x264 core 130 r2273 b3065e6\nEncoding settings : cabac=1 / ref=8 / deblock=1:-3:-3 / analyse=0x1:0x131 / me=umh / subme=7 / psy=1 / psy_rd=1.00:0.15 / mixed_ref=1 / me_range=16 / chroma_me=1 / trellis=2 / 8x8dct=0 / cqm=0 / deadzone=21,11 / fast_pskip=0 / chroma_qp_offset=-3 / threads=3 / lookahead_threads=1 / sliced_threads=0 / nr=0 / decimate=1 / interlaced=0 / bluray_compat=0 / constrained_intra=0 / bframes=5 / b_pyramid=2 / b_adapt=2 / b_bias=0 / direct=3 / weightb=1 / open_gop=0 / weightp=2 / keyint=250 / keyint_min=25 / scenecut=40 / intra_refresh=0 / rc_lookahead=60 / rc=2pass / mbtree=1 / bitrate=1980 / ratetol=1.0 / qcomp=0.60 / qpmin=0 / qpmax=69 / qpstep=4 / cplxblur=20.0 / qblur=0.5 / vbv_maxrate=14000 / vbv_bufsize=14000 / nal_hrd=none / ip_ratio=1.40 / aq=1:1.00\nLanguage : English\nDefault : Yes\nForced : No\nColor primaries : Generic film\n\nAudio\nID : 2\nFormat : AC-3\nFormat/Info : Audio Coding 3\nMode extension : CM (complete main)\nCodec ID : A_AC3\nDuration : 1h 21mn\nBit rate mode : Constant\nBit rate : 256 Kbps\nChannel(s) : 2 channels\nChannel positions : Front: L R\nSampling rate : 48.0 KHz\nBit depth : 16 bits\nCompression mode : Lossy\nStream size : 149 MiB (11%)\nLanguage : Hungarian\nDefault : Yes\nForced : No\n\nText\nID : 3\nFormat : UTF-8\nCodec ID : S_TEXT/UTF8\nCodec ID/Info : UTF-8 Plain Text\nTitle : English srt\nLanguage : English\nDefault : Yes\nForced : Yes\n\nMenu\n00:00:00.000 : :Chapter 01\n00:02:35.280 : :Chapter 02\n00:10:18.560 : :Chapter 03\n00:15:08.120 : :Chapter 04\n00:21:04.440 : :Chapter 05\n00:27:55.240 : :Chapter 06\n00:31:49.760 : :Chapter 07\n00:35:54.960 : :Chapter 08\n00:41:51.120 : :Chapter 09\n00:47:02.320 : :Chapter 10\n00:55:51.160 : :Chapter 11\n01:00:30.120 : :Chapter 12\n01:08:13.120 : :Chapter 13\n01:13:15.880 : :Chapter 14\n01:17:36.840 : :Chapter 15","torrent":{"xt":"urn:btih:dc213a2de14bf84e8c5720e96b86c86a98f7e874","amp;dn":"Magasiskola+aka+The+Falcons+%281970%29+-+DVDRip+x264+%5B%2BExtras%5D","amp;tr":["udp%3A%2F%2Ftracker.openbittorrent.com%3A80","udp%3A%2F%2Fopen.demonii.com%3A1337","udp%3A%2F%2Ftracker.coppersurfer.tk%3A6969","udp%3A%2F%2Fexodus.desync.com%3A6969"],"infoHash":"dc213a2de14bf84e8c5720e96b86c86a98f7e874","infoHashBuffer":{"type":"Buffer","data":[220,33,58,45,225,75,248,78,140,87,32,233,107,134,200,106,152,247,232,116]},"announce":[],"urlList":[]}}